<svg version="1.1" id="Layer_1" xmlns="http://www.w3.org/2000/svg" xmlns:xlink="http://www.w3.org/1999/xlink" x="0px" y="0px"
	 width="100%" viewBox="0 0 1024 1024" enable-background="new 0 0 1024 1024" xml:space="preserve">
<path fill="#000000" opacity="1.000000" stroke="none" 
	d="
M335.021790,486.989166 
	C323.362640,482.092651 311.437744,483.551208 299.672913,483.343811 
	C296.748077,483.292267 296.270477,485.483307 295.519287,487.514832 
	C284.411255,517.553284 271.445190,546.761292 255.317764,574.449280 
	C241.482117,598.202576 225.489792,620.274414 202.529694,636.308044 
	C182.024857,650.627136 159.691086,656.887207 134.999557,650.287903 
	C117.369476,645.575928 105.252151,634.864868 104.258545,615.579224 
	C103.174690,594.541992 112.732307,581.389099 136.135941,585.439880 
	C138.980362,585.932190 141.614944,587.032349 142.375763,590.363159 
	C143.168076,593.831848 140.840225,595.523376 138.535339,597.255127 
	C129.909958,603.735962 126.536560,612.399475 127.658882,623.032715 
	C129.517349,640.640442 148.752579,646.447998 161.866394,642.045898 
	C173.289749,638.211121 182.277130,630.931458 190.436798,622.494812 
	C207.591873,604.757385 218.893051,583.212158 229.688660,561.368469 
	C241.146042,538.185730 249.216690,513.616821 258.917145,489.715363 
	C274.859558,450.434082 292.622131,412.087128 316.962921,377.174561 
	C328.520966,360.596497 341.544037,345.229675 357.520508,332.608459 
	C359.567810,330.991180 361.508026,329.238403 364.054382,327.075745 
	C357.100586,322.700256 349.890778,321.470917 342.797302,320.457794 
	C275.064178,310.783752 207.392929,351.990082 181.039337,409.526672 
	C174.409012,424.002380 170.709473,439.039185 171.446991,454.941528 
	C171.834869,463.304413 173.648880,471.351990 179.944183,477.770569 
	C188.640442,486.637024 201.131638,486.430084 211.030441,482.261444 
	C226.592224,475.708008 236.516647,463.436218 244.399918,449.113922 
	C245.761169,446.640808 247.222763,444.201538 248.875183,441.918274 
	C249.823273,440.608307 251.136063,439.323212 253.115280,440.260986 
	C255.083771,441.193695 255.517181,442.877869 255.293991,444.854340 
	C255.238251,445.348053 255.218781,445.880157 255.016708,446.318054 
	C245.449203,467.053467 233.526321,485.601929 210.428131,493.526062 
	C193.743622,499.249939 176.450439,495.277130 165.971741,483.350189 
	C159.318161,475.777039 156.625427,466.541046 155.702011,456.790619 
	C151.505142,412.476013 171.449585,378.651123 202.933746,350.258301 
	C228.720139,327.003784 259.984802,315.289124 293.718781,309.626495 
	C321.750824,304.921051 349.370087,306.827667 376.232880,316.544861 
	C380.015930,317.913330 383.158813,317.544373 386.656158,315.703125 
	C397.286804,310.106415 408.424347,305.704651 420.014832,302.492157 
	C421.131775,302.182556 422.274078,301.802338 423.413605,301.769836 
	C425.874664,301.699493 428.260559,302.330414 429.030060,304.945404 
	C429.749908,307.391785 428.164185,309.152222 426.106842,310.160797 
	C420.278839,313.017853 414.403137,315.781830 408.494446,318.468597 
	C404.275085,320.387177 399.920563,322.025696 395.881073,325.053375 
	C397.749542,327.564453 400.383789,328.710297 402.600739,330.319336 
	C428.858459,349.377045 437.438965,378.884491 425.266632,409.027954 
	C415.247925,433.838165 397.648956,452.278381 375.935272,467.242615 
	C369.067780,471.975433 361.348969,475.132996 354.101074,479.160034 
	C354.807953,481.576202 356.870514,481.853973 358.334747,482.718811 
	C375.483307,492.847443 385.751129,507.992554 388.959381,527.334900 
	C391.067139,540.042419 389.303223,552.861633 385.290497,565.240967 
	C376.897339,591.134460 363.876343,614.087463 342.044586,631.010071 
	C326.406250,643.132019 308.773071,649.439392 288.521820,647.449646 
	C275.507080,646.170837 263.811737,636.927246 259.702606,623.206543 
	C254.220474,604.901489 259.540833,588.723022 270.083221,573.807373 
	C277.514893,563.292786 287.589264,556.132446 299.760193,551.937622 
	C300.860138,551.558472 301.979370,551.093445 303.117828,550.995361 
	C306.157135,550.733398 310.116241,549.228394 311.484283,553.079102 
	C312.958649,557.229004 308.753113,557.966064 306.057068,559.363586 
	C285.367126,570.088806 272.230286,586.750305 270.600555,610.118652 
	C268.811798,635.767883 291.097809,642.671997 309.366516,632.747314 
	C325.806488,623.816040 336.049011,609.010193 343.562592,592.220642 
	C352.568085,572.097595 357.434174,550.934387 358.231049,528.981079 
	C358.694611,516.210938 357.536835,503.534851 346.809448,494.172424 
	C343.364807,491.166138 339.473572,489.017517 335.021790,486.989166 
M337.243408,470.665588 
	C353.527069,466.306793 367.236237,457.884308 377.242035,444.209259 
	C393.442749,422.067566 404.375488,397.993988 401.553101,369.695496 
	C400.292480,357.056396 395.106598,346.115387 385.032745,337.728546 
	C381.690460,334.945953 379.626678,335.363403 376.636871,338.162964 
	C363.517212,350.447784 352.765350,364.599335 343.455444,379.859161 
	C329.973328,401.957581 320.049469,425.784943 310.155670,449.613098 
	C307.246460,456.619537 304.311493,463.615234 300.740845,472.166473 
	C313.498199,470.318909 324.970001,474.277618 337.243408,470.665588 
z"/>
<path fill="#000000" opacity="1.000000" stroke="none" 
	d="
M362.972473,646.969116 
	C360.287415,642.918091 362.639008,640.485840 365.478821,638.960510 
	C389.288971,626.170715 402.899445,604.422729 415.403687,581.880188 
	C434.841949,546.837036 448.983398,509.410004 463.864197,472.323792 
	C478.816040,435.060577 494.526093,398.151031 514.694763,363.304504 
	C527.251587,341.609467 543.524292,323.837006 566.358337,312.701569 
	C569.950623,310.949677 573.572876,309.220062 577.535034,308.490143 
	C581.049805,307.842560 582.566345,309.695984 581.388184,313.043884 
	C581.170044,313.663910 580.798645,314.236023 580.457336,314.805908 
	C562.922180,344.086487 554.296387,376.497437 547.374939,409.471252 
	C538.343689,452.496155 531.210388,495.920898 520.317627,538.552185 
	C517.027161,551.430237 513.298584,564.196289 509.782104,577.016724 
	C509.576630,577.765869 509.473938,578.543213 509.657440,579.430542 
	C513.989502,573.507141 516.490417,566.670593 519.546448,560.151855 
	C543.011536,510.100250 563.681702,458.742462 589.612915,409.845947 
	C599.756714,390.718475 609.883057,371.464569 624.278870,355.092041 
	C640.146301,337.045807 656.758972,319.705078 679.478455,309.935791 
	C683.931946,308.020752 688.381897,306.126923 693.395325,306.595642 
	C697.145508,306.946259 698.261108,309.081757 696.448364,312.398956 
	C696.210632,312.834076 695.917358,313.251923 695.586609,313.621246 
	C676.260071,335.206024 665.931824,361.790741 655.730225,388.102905 
	C637.567749,434.948151 623.343811,483.128693 610.990601,531.824890 
	C604.402466,557.795471 599.575806,584.073364 600.325195,611.067932 
	C600.389954,613.399414 600.581177,615.661865 601.144531,617.964294 
	C603.819702,628.897949 609.951294,631.889038 619.960876,626.459961 
	C632.356812,619.736511 640.991760,609.232117 647.773254,597.129761 
	C651.763062,590.009460 655.270142,582.635986 658.137207,574.973572 
	C658.657898,573.582031 659.280334,572.196472 660.077148,570.949646 
	C660.827576,569.775146 662.105957,569.052185 663.513123,569.394287 
	C665.082336,569.775879 665.390564,571.222839 665.266052,572.596130 
	C665.041870,575.069458 664.886597,577.586975 664.288025,579.982483 
	C658.369934,603.666992 647.589050,624.250854 626.115784,637.528381 
	C616.074585,643.737061 605.387207,648.084656 593.033813,645.511414 
	C585.483398,643.938721 580.059448,639.787231 576.332947,633.212769 
	C570.625732,623.143921 568.562561,612.052917 567.692261,600.729126 
	C565.801453,576.126831 572.192932,552.564087 577.701050,529.029663 
	C590.869202,472.765778 610.019958,418.594269 636.545410,367.150024 
	C639.465637,361.486481 642.669067,355.969025 645.864258,350.160065 
	C643.050720,349.622131 642.324951,351.442993 641.291565,352.564148 
	C617.455688,378.424377 599.351196,408.084351 584.447388,439.721710 
	C561.170471,489.133148 540.102051,539.574463 515.470154,588.354248 
	C507.361816,604.411743 499.012360,620.410828 485.712097,633.052612 
	C481.355804,637.193237 476.916046,641.252502 471.093994,643.293579 
	C469.697083,643.783325 468.230835,644.225891 466.767792,644.348755 
	C462.007660,644.748352 460.850250,643.190002 462.826447,638.874817 
	C468.038513,627.493713 471.945343,615.676941 475.115753,603.582947 
	C483.120392,573.048096 488.208221,541.937744 493.742523,510.904633 
	C503.444885,456.499054 515.476196,402.719452 538.447632,352.036591 
	C540.017822,348.572205 541.745422,345.179138 543.959106,340.594757 
	C540.779297,342.472748 539.280151,344.291626 537.812378,346.184845 
	C525.239929,362.401245 517.426147,381.259766 508.333099,399.396423 
	C490.689758,434.587067 477.399292,471.594574 462.989807,508.144257 
	C450.291687,540.353088 437.946503,572.773438 419.104584,602.136169 
	C409.130707,617.679199 398.002533,632.123596 381.773071,641.771423 
	C377.451660,644.340271 372.856323,646.234497 367.995209,647.510803 
	C366.372040,647.936951 364.775391,648.553345 362.972473,646.969116 
z"/>
<path fill="#000000" opacity="1.000000" stroke="none" 
	d="
M916.418213,373.185120 
	C910.420044,392.198914 897.454529,405.425934 882.755554,417.278259 
	C872.584778,425.479248 861.892761,432.791718 848.826843,435.703644 
	C840.419556,437.577332 832.035217,437.957489 823.729126,435.240356 
	C820.559814,434.203613 817.423706,433.019714 815.129883,430.394989 
	C813.686523,428.743439 813.125183,426.852417 814.287354,424.894745 
	C815.467957,422.906128 817.429932,423.225403 819.199463,423.872711 
	C834.735413,429.556122 848.564880,425.715118 861.471741,416.445953 
	C874.875610,406.819946 886.527710,395.479431 895.021973,381.239929 
	C902.637512,368.473694 906.758362,354.732849 903.784363,339.763489 
	C901.563110,328.583282 892.569702,320.858551 881.274963,319.336212 
	C863.843811,316.986725 848.431458,322.376526 834.057617,331.607361 
	C810.017029,347.046082 790.793518,367.508667 773.924622,390.265442 
	C756.233643,414.131256 740.265076,439.071930 728.455566,466.475616 
	C717.536072,491.814209 710.072937,518.140564 706.511292,545.482178 
	C704.897400,557.871216 704.800964,570.380432 708.390930,582.582214 
	C710.286499,589.024963 712.793823,595.203003 718.012268,599.784607 
	C727.064819,607.732361 737.068115,606.104309 747.097351,602.298523 
	C759.446167,597.612610 769.726624,589.631470 779.538086,581.052063 
	C800.953003,562.326355 817.486328,539.604919 832.527954,515.702637 
	C838.292847,506.541626 843.566528,497.058594 849.606201,488.087280 
	C854.770630,480.415955 861.333252,473.977570 870.295044,470.664520 
	C874.204163,469.219360 878.198181,468.120331 882.453796,469.478485 
	C885.495850,470.449371 886.858032,472.401489 884.992249,475.079132 
	C863.437988,506.011505 857.906494,543.135376 845.381592,577.539062 
	C835.227539,605.430786 824.721191,633.074951 808.597656,658.238342 
	C789.392029,688.211853 764.433655,710.930908 729.882690,721.887878 
	C714.966248,726.618225 699.985107,728.165222 684.814087,723.215942 
	C661.632874,715.653381 654.112488,693.950500 659.623718,674.708008 
	C660.859009,670.395020 663.339355,666.871521 666.416992,663.802063 
	C674.609009,655.631897 684.347534,650.050781 695.564819,647.155396 
	C698.488953,646.400635 702.018066,645.573181 703.680908,648.788147 
	C705.556580,652.414917 701.984192,653.913208 699.658508,655.701355 
	C687.110840,665.348145 680.629822,677.610352 683.281494,693.800598 
	C685.973389,710.236633 696.498718,717.430298 712.643433,713.100098 
	C730.562500,708.293884 745.078125,697.777527 757.193420,684.038208 
	C773.017822,666.092590 783.630127,644.941956 793.381897,623.326599 
	C802.767944,602.521851 809.953491,580.849792 818.394592,559.672180 
	C818.908264,558.383484 819.667114,556.965332 818.846619,554.760315 
	C815.334534,559.445374 812.129883,563.831604 808.810242,568.128906 
	C795.979126,584.738892 781.378479,599.408752 763.120239,610.151428 
	C748.060608,619.012024 732.184570,623.214661 714.877075,618.634399 
	C697.834961,614.124390 688.407959,601.621277 682.095215,586.181580 
	C676.524353,572.556396 675.355957,558.320190 675.419739,543.680359 
	C675.539917,516.105042 681.806152,489.960022 692.431641,464.795227 
	C700.941956,444.639709 711.886841,425.737213 724.745972,408.032654 
	C745.057312,380.067871 769.077515,355.707520 797.124390,335.455231 
	C816.931335,321.152893 838.423889,310.397552 862.936218,307.086426 
	C882.331360,304.466492 911.985229,313.980438 918.815430,338.539459 
	C922.045776,350.154602 920.564026,361.598358 916.418213,373.185120 
z"/>
</svg>